<svg width="50" height="50" viewBox="0 0 50 50" fill="none" xmlns="http://www.w3.org/2000/svg">
<rect width="50" height="50" rx="5" fill="#FF3838"/>
<g clip-path="url(#clip0_5190_67360)">
<path d="M28.1165 14.6022C27.665 14.4668 27.1764 14.6473 26.9188 15.043L21.3846 23.6072C21.204 23.8887 21.1642 24.2366 21.281 24.55C21.3952 24.8633 21.6528 25.105 21.9715 25.2006L27.4181 26.8338C27.519 26.863 27.6199 26.8789 27.7235 26.8789C27.9465 26.8789 28.1696 26.8072 28.3528 26.6718C28.6211 26.4726 28.7804 26.1592 28.7857 25.8273L28.8733 15.6299C28.8786 15.1572 28.5679 14.7376 28.1165 14.6022V14.6022Z" fill="#FFE600"/>
<path d="M22.1892 35.4458C22.0883 35.4458 21.9848 35.4299 21.8839 35.4007C21.4324 35.2653 21.1217 34.8457 21.127 34.373L21.2147 24.1756C21.2173 23.841 21.3766 23.5276 21.6475 23.3311C21.9157 23.132 22.2636 23.0709 22.5823 23.1691L28.0289 24.8023C28.3475 24.8979 28.6051 25.1396 28.7193 25.4529C28.8361 25.7663 28.7963 26.1168 28.6157 26.3957L23.0789 34.9625C22.8797 35.2706 22.5398 35.4485 22.1866 35.4485L22.1892 35.4458ZM23.3285 25.6096L23.2833 30.7349L26.0664 26.4302L23.3285 25.6096V25.6096Z" fill="white"/>
<path d="M25.0013 40C16.7292 40 10 33.2708 10 25.0013C10 16.7319 16.7292 10 25.0013 10C33.2734 10 40.0027 16.7292 40.0027 25.0013C40.0027 33.2734 33.2734 40 25.0013 40ZM25.0013 12.1245C17.9003 12.1245 12.1245 17.9003 12.1245 25.0013C12.1245 32.1023 17.9003 37.8755 25.0013 37.8755C32.1023 37.8755 37.8782 32.0997 37.8782 25.0013C37.8782 17.903 32.0997 12.1245 25.0013 12.1245Z" fill="white"/>
</g>
<defs>
<clipPath id="clip0_5190_67360">
<rect width="30" height="30" fill="white" transform="translate(10 10)"/>
</clipPath>
</defs>
</svg>
