<svg width="50" height="50" viewBox="0 0 50 50" fill="none" xmlns="http://www.w3.org/2000/svg">
<rect width="50" height="50" rx="5" fill="#FF3838"/>
<path d="M18.0034 23.7988H15.8647V27.8423H18.0034V23.7988Z" fill="#FFE600"/>
<path d="M21.6489 19.4072H19.5103V27.8421H21.6489V19.4072Z" fill="#FFE600"/>
<path d="M25.2949 21.7012H23.1562V27.8424H25.2949V21.7012Z" fill="#FFE600"/>
<path d="M28.9404 17.2256H26.8018V27.8427H28.9404V17.2256Z" fill="#FFE600"/>
<path d="M39.3022 34.0784H34.8052V9.6756C34.8052 9.30402 34.4912 9 34.1075 9H10.6978C10.314 9 10 9.30402 10 9.6756V37.8213C10.007 39.5745 11.4827 41 13.2969 41H36.7066C38.5242 41 40 39.5677 40 37.8111V34.754C40 34.3825 39.686 34.0784 39.3022 34.0784ZM13.2969 39.6488C12.2503 39.6488 11.3955 38.8246 11.3955 37.8111V10.3512H33.4132V37.8213C33.4132 38.5003 33.6434 39.132 34.0202 39.6488H13.2969V39.6488ZM38.608 37.8111C38.608 38.8246 37.7567 39.6488 36.7101 39.6488C35.6634 39.6488 34.8087 38.8246 34.8087 37.8111V35.4296H38.608V37.8111Z" fill="white"/>
<path d="M28.3965 33.1865H16.4126V34.5377H28.3965V33.1865Z" fill="#FFE600"/>
<path d="M28.3965 30.9062H16.4126V32.2575H28.3965V30.9062Z" fill="#FFE600"/>
</svg>
