<svg width="50" height="50" viewBox="0 0 50 50" fill="none" xmlns="http://www.w3.org/2000/svg">
<rect width="50" height="50" rx="5" fill="#FF3838"/>
<g clip-path="url(#clip0_5190_67369)">
<path d="M38.732 46H11.268C10.5674 46 10 45.44 10 44.7486V42.1988C10 35.1596 14.1526 29.5377 20.4448 27.8889V27.842C17.3637 26.4436 15.5537 23.3307 15.5537 19.3261C15.5537 14.1828 19.795 10 25.0032 10C30.2113 10 34.4495 14.1828 34.4495 19.3261C34.4495 23.3275 32.6395 26.4404 29.5615 27.8389V27.8858C35.8506 29.5345 40.0032 35.1596 40.0032 42.1957V44.7455C40.0032 45.4369 39.4358 45.9969 38.7352 45.9969L38.732 46ZM12.5359 43.4972H37.4641V42.1988C37.4641 36.0231 33.6824 31.1676 28.0558 30.1165C27.4567 30.0038 27.0224 29.4876 27.0224 28.8869V26.991C27.0224 26.4529 27.3743 25.9711 27.891 25.8022C30.4459 24.9669 31.9104 22.608 31.9104 19.3261C31.9104 15.5657 28.8102 12.5028 25 12.5028C21.1898 12.5028 18.0864 15.5625 18.0864 19.3261C18.0864 22.608 19.5509 24.9669 22.1059 25.8022C22.6257 25.9711 22.9744 26.4498 22.9744 26.991V28.8869C22.9744 29.4876 22.5402 30.0038 21.941 30.1165C16.3113 31.1676 12.5296 36.0231 12.5296 42.1988V43.4972H12.5359Z" fill="white"/>
</g>
<defs>
<clipPath id="clip0_5190_67369">
<rect width="30" height="30" fill="white" transform="translate(10 10)"/>
</clipPath>
</defs>
</svg>
