<svg width="50" height="48" viewBox="0 0 50 48" fill="none" xmlns="http://www.w3.org/2000/svg">
<rect width="50.0001" height="47.9995" rx="5" fill="#FF3838"/>
<path d="M35.3994 38.9994C34.9912 38.9994 34.6088 38.8419 34.3195 38.5552L29.0726 33.3068C28.8505 33.0846 28.7419 32.7747 28.7755 32.4622C28.8091 32.1496 28.9848 31.8707 29.2483 31.7028C29.9432 31.2611 30.5891 30.7446 31.1652 30.1686C31.7413 29.5926 32.2579 28.9469 32.7023 28.2521C32.8702 27.9887 33.1492 27.813 33.4618 27.7794C33.7744 27.7459 34.0844 27.8543 34.3066 28.0765L39.5535 33.3197C40.1502 33.9189 40.1476 34.8875 39.5535 35.4815L36.4844 38.5526C36.195 38.8419 35.8127 38.9994 35.4045 38.9994H35.3994ZM31.4003 32.7127L35.3994 36.711L37.7089 34.4019L33.7098 30.4062C33.374 30.8376 33.0123 31.2482 32.6274 31.6331C32.2424 32.0179 31.8317 32.3795 31.4003 32.7153V32.7127Z" fill="white"/>
<path d="M23.2496 35.5105C19.7103 35.5105 16.3803 34.1313 13.877 31.6311C8.70766 26.4628 8.70766 18.0504 13.877 12.882C16.3803 10.3793 19.7103 9 23.2522 9C26.794 9 30.124 10.3793 32.6273 12.882C36.9829 17.2368 37.7476 24.1666 34.446 29.3607C33.9216 30.1847 33.3093 30.9492 32.6273 31.6311C31.9427 32.313 31.1806 32.9251 30.3565 33.4494C28.2355 34.7977 25.7761 35.5131 23.247 35.5131L23.2496 35.5105ZM23.2522 11.0663C20.2632 11.0663 17.4524 12.2312 15.3392 14.344C10.9759 18.7064 10.9759 25.8067 15.3392 30.1692C17.4524 32.282 20.2606 33.4443 23.2496 33.4443C25.3835 33.4443 27.4579 32.8424 29.2508 31.7034C29.9457 31.2617 30.5916 30.7452 31.1677 30.1692C31.7438 29.5932 32.2605 28.9475 32.7048 28.2527C35.4923 23.8696 34.8464 18.022 31.1677 14.344C29.0545 12.2312 26.2437 11.0663 23.2522 11.0663V11.0663Z" fill="white"/>
<path d="M23.2525 32.1868C17.7757 32.1868 13.3193 27.7314 13.3193 22.2557C13.3193 16.78 17.7757 12.3271 23.2525 12.3271C28.7293 12.3271 33.1831 16.7826 33.1831 22.2557C33.1831 27.7288 28.7267 32.1868 23.2525 32.1868V32.1868ZM23.2525 14.3934C18.915 14.3934 15.3861 17.9216 15.3861 22.2557C15.3861 26.5897 18.915 30.1205 23.2525 30.1205C27.59 30.1205 31.1163 26.5923 31.1163 22.2557C31.1163 17.9191 27.5874 14.3934 23.2525 14.3934V14.3934Z" fill="#FFE600"/>
<path d="M20.1056 25.9249C19.5347 25.9249 19.0723 25.4625 19.0723 24.8916V22.6027C19.0723 22.0318 19.5347 21.5693 20.1056 21.5693C20.6766 21.5693 21.139 22.0318 21.139 22.6027V24.8916C21.139 25.4625 20.6766 25.9249 20.1056 25.9249Z" fill="#FFE600"/>
<path d="M23.2521 25.924C22.6812 25.924 22.2188 25.4617 22.2188 24.8909V19.0097C22.2188 18.4389 22.6812 17.9766 23.2521 17.9766C23.823 17.9766 24.2855 18.4389 24.2855 19.0097V24.8909C24.2855 25.4617 23.823 25.924 23.2521 25.924Z" fill="#FFE600"/>
<path d="M26.3991 25.9244C25.8282 25.9244 25.3657 25.4621 25.3657 24.8913V20.5185C25.3657 19.9477 25.8282 19.4854 26.3991 19.4854C26.97 19.4854 27.4324 19.9477 27.4324 20.5185V24.8913C27.4324 25.4621 26.97 25.9244 26.3991 25.9244V25.9244Z" fill="#FFE600"/>
</svg>
