<svg width="50" height="50" viewBox="0 0 50 50" fill="none" xmlns="http://www.w3.org/2000/svg">
<rect width="50" height="50" rx="5" fill="#FF3838"/>
<g clip-path="url(#clip0_5190_67377)">
<path d="M38.0353 38.9996H33.3172C32.7474 38.9996 32.2859 38.5506 32.2859 37.9962V30.8319C32.2859 28.5592 31.1566 26.3993 29.2694 25.0548C28.9755 24.8466 28.8156 24.5004 28.8517 24.1492C29.0863 21.7812 31.1076 19.9951 33.5544 19.9951C36.1609 19.9951 38.2802 22.0571 38.2802 24.5932C38.2802 25.8324 37.7749 26.9788 36.9267 27.8167C38.7855 28.938 40.0025 30.9473 40.0025 33.1598V37.0881C40.0025 38.2671 39.2496 38.9996 38.0379 38.9996H38.0353ZM34.3485 36.9928H37.9373V33.1598C37.9373 31.163 36.4832 29.4096 34.4799 28.9906C34.3484 28.963 34.2273 28.9104 34.119 28.8401C34.2685 29.4898 34.3459 30.1571 34.3459 30.8319V36.9928H34.3485ZM31.0071 23.8331C32.2472 24.8541 33.1857 26.1635 33.7477 27.621C33.8612 27.3576 34.0881 27.1469 34.3794 27.0541C35.4777 26.7054 36.2176 25.717 36.2176 24.5932C36.2176 23.1634 35.0239 22.0019 33.5544 22.0019C32.3581 22.0019 31.3397 22.7595 31.0071 23.8331V23.8331Z" fill="white"/>
<path d="M16.5435 38.9996H11.9646C10.7528 38.9996 10 38.2671 10 37.0881V33.1598C10 30.9473 11.2143 28.938 13.0758 27.8167C12.2276 26.9763 11.7222 25.8324 11.7222 24.5932C11.7222 22.0571 13.8415 19.9951 16.4481 19.9951C18.8355 19.9951 20.8517 21.7335 21.1353 24.0388C21.1817 24.4051 21.0141 24.7663 20.7047 24.9795C18.7453 26.3191 17.5748 28.509 17.5748 30.8319V37.9962C17.5748 38.5506 17.1133 38.9996 16.5435 38.9996V38.9996ZM12.0626 36.9928H15.5122V30.8319C15.5122 30.1847 15.5818 29.545 15.7185 28.9254C15.654 28.953 15.587 28.9731 15.5174 28.9881C13.5141 29.407 12.06 31.1605 12.06 33.1573V36.9903L12.0626 36.9928ZM16.4455 22.0044C14.9785 22.0044 13.7822 23.1659 13.7822 24.5957C13.7822 25.7195 14.5196 26.7079 15.6205 27.0566C15.8551 27.1318 16.0459 27.2798 16.1722 27.473C16.7575 26.0356 17.7114 24.7487 18.9618 23.7504C18.6009 22.7244 17.6006 22.0044 16.4455 22.0044V22.0044Z" fill="white"/>
<path d="M25.9772 24.0343L26.3175 22.9707C25.874 23.0786 25.41 23.1363 24.933 23.1363C24.456 23.1363 23.9919 23.0786 23.5485 22.9707L23.8862 24.0343H23.9945L22.9014 30.9327L24.9304 33.2029L26.9595 30.9327L25.8663 24.0343H25.9746H25.9772Z" fill="#FFE600"/>
<path d="M33.3173 39H16.5435C15.9737 39 15.5122 38.551 15.5122 37.9966V30.8323C15.5122 27.3455 17.5799 24.2023 20.666 22.6646C19.1217 21.4429 18.1781 19.5916 18.1781 17.5673C18.1781 13.9475 21.2075 11 24.9304 11C28.6533 11 31.6827 13.9475 31.6827 17.5673C31.6827 19.5916 30.7391 21.4454 29.1947 22.6646C32.2834 24.1998 34.3486 27.3429 34.3486 30.8323V37.9966C34.3486 38.551 33.8871 39 33.3173 39V39ZM17.5748 36.9932H32.286V30.8323C32.286 27.4834 29.8496 24.5435 26.4902 23.8386C26.0339 23.7432 25.7013 23.3619 25.6781 22.9104C25.6549 22.4589 25.9436 22.045 26.3871 21.9045C28.3207 21.2899 29.6201 19.5465 29.6201 17.5673C29.6201 15.0512 27.5163 13.0068 24.9304 13.0068C22.3445 13.0068 20.2406 15.0538 20.2406 17.5673C20.2406 19.5465 21.5401 21.2899 23.4737 21.9045C23.9172 22.045 24.2085 22.4564 24.1827 22.9104C24.1595 23.3619 23.8243 23.7432 23.3706 23.8386C20.0112 24.5435 17.5748 27.4834 17.5748 30.8323V36.9932V36.9932Z" fill="white"/>
</g>
<defs>
<clipPath id="clip0_5190_67377">
<rect width="30" height="28" fill="white" transform="translate(10 11)"/>
</clipPath>
</defs>
</svg>
