<svg xmlns="http://www.w3.org/2000/svg" viewBox="0 0 54 54"><defs><style>.cls-1{fill:#fff;}.cls-2{fill:#3e3939;}.cls-3{fill:none;}</style></defs><g id="Layer_2" data-name="Layer 2"><g id="Isolation_Mode" data-name="Isolation Mode"><path class="cls-1" d="M4.31,43.06a.57.57,0,0,1-.56-.57V11.19a.57.57,0,0,1,.56-.57h15L23,13.94a1.26,1.26,0,0,0,.83.31H45.27V42.49a.58.58,0,0,1-.57.57Z"/><path class="cls-2" d="M18.79,11.87l3.38,3a2.45,2.45,0,0,0,1.66.63H44V41.81H5V11.87H18.79m.95-2.5H4.31A1.82,1.82,0,0,0,2.5,11.19v31.3a1.82,1.82,0,0,0,1.81,1.82H44.7a1.83,1.83,0,0,0,1.82-1.82V13H23.83L19.74,9.37Z"/><polygon class="cls-1" points="4.29 43.38 9.17 20.59 49.95 20.59 45.07 43.38 4.29 43.38"/><path class="cls-2" d="M48.41,21.84,44.06,42.13H5.83l4.35-20.29H48.41m3.09-2.5Zm0,0H8.16L2.74,44.63H46.08L51.5,19.34Z"/><rect class="cls-3" width="54" height="54"/></g></g></svg>