<?xml version="1.0" encoding="utf-8"?>
<!-- Generator: Adobe Illustrator 24.3.0, SVG Export Plug-In . SVG Version: 6.00 Build 0)  -->
<svg version="1.1" id="Layer_1" xmlns="http://www.w3.org/2000/svg" xmlns:xlink="http://www.w3.org/1999/xlink" x="0px" y="0px"
	 viewBox="0 0 54 54" style="enable-background:new 0 0 54 54;" xml:space="preserve">
<style type="text/css">
	.st0{fill:#FFFFFF;}
	.st1{fill:#DA4446;}
	.st2{fill:none;}
</style>
<g id="Layer_2_1_">
	<g id="Isolation_Mode">
		<path class="st0" d="M4.3,43.1c-0.3,0-0.6-0.3-0.6-0.6V11.2c0-0.3,0.2-0.6,0.6-0.6h15l3.7,3.3c0.2,0.2,0.5,0.3,0.8,0.3h21.4v28.2
			c0,0.3-0.3,0.6-0.6,0.6H4.3z"/>
		<path class="st1" d="M18.8,11.9l3.4,3c0.5,0.4,1,0.6,1.7,0.6H44v26.3H5V11.9H18.8 M19.7,9.4H4.3c-1,0-1.8,0.8-1.8,1.8v31.3
			c0,1,0.8,1.8,1.8,1.8h40.4c1,0,1.8-0.8,1.8-1.8V13H23.8C23.8,13,19.7,9.4,19.7,9.4z"/>
		<polygon class="st0" points="4.3,43.4 9.2,20.6 50,20.6 45.1,43.4 		"/>
		<path class="st1" d="M48.4,21.8l-4.3,20.3H5.8l4.4-20.3H48.4z M51.5,19.3H8.2L2.7,44.6h43.3L51.5,19.3z"/>
		<rect y="0" class="st2" width="54" height="54"/>
	</g>
</g>
</svg>
