<?xml version="1.0" encoding="utf-8"?>
<!-- Generator: Adobe Illustrator 24.3.0, SVG Export Plug-In . SVG Version: 6.00 Build 0)  -->
<svg version="1.1" id="Layer_1" xmlns="http://www.w3.org/2000/svg" xmlns:xlink="http://www.w3.org/1999/xlink" x="0px" y="0px"
	 viewBox="0 0 54 54" style="enable-background:new 0 0 54 54;" xml:space="preserve">
<style type="text/css">
	.st0{fill:none;stroke:#DA4446;stroke-width:2.5;stroke-linecap:round;stroke-linejoin:round;}
	.st1{fill:#DA4446;}
	.st2{fill:none;}
</style>
<g id="Layer_2_1_">
	<g id="image">
		<path class="st0" d="M44.4,50H11.5c-1,0-1.8-0.8-1.9-1.8v-3.6c0-1,0.8-1.9,1.9-1.9h32.9V5.8c0-1-0.8-1.9-1.8-1.9c0,0,0,0-0.1,0
			h-31c-1,0-1.9,0.8-1.9,1.8c0,0,0,0,0,0v38.7"/>
		<path class="st0" d="M43.8,42.7c-1,0-1.8,0.8-1.8,1.8v3.7c0,1,0.8,1.8,1.8,1.8"/>
		<line class="st0" x1="40.9" y1="46.5" x2="11.1" y2="46.5"/>
		<path class="st1" d="M32,14.3c0,1.5-1.2,2.6-2.6,2.6c-1.5,0-2.6-1.2-2.6-2.6s1.2-2.6,2.6-2.6l0,0C30.8,11.6,32,12.8,32,14.3z"/>
		<path class="st1" d="M23.6,19.8h6.9L26.9,33c0,0-0.6,1.8,1,0.3c1-1,3.1-3.1,3.1-3.1s-0.1,0.6-1.8,3c-0.6,1.1-1.7,2-2.9,2.4
			c-3.4,0.8-4.1-0.4-3-4.4s3-9.8,3-9.8h-2.8L23.6,19.8z"/>
		<rect y="0" class="st2" width="54" height="54"/>
	</g>
</g>
</svg>
