<?xml version="1.0" encoding="utf-8"?>
<!-- Generator: Adobe Illustrator 24.3.0, SVG Export Plug-In . SVG Version: 6.00 Build 0)  -->
<svg version="1.1" id="Layer_1" xmlns="http://www.w3.org/2000/svg" xmlns:xlink="http://www.w3.org/1999/xlink" x="0px" y="0px"
	 viewBox="0 0 54 54" style="enable-background:new 0 0 54 54;" xml:space="preserve">
<style type="text/css">
	.st0{fill:#FFFFFF;stroke:#DA4446;stroke-width:2.5;stroke-linecap:round;stroke-linejoin:round;}
	.st1{fill:none;}
</style>
<g id="Layer_2_1_">
	<g id="image">
		<rect x="3" y="14.1" class="st0" width="48" height="27.6"/>
		<polyline class="st0" points="37,36.8 37,43.7 37,43.7 34.1,42.3 30.7,43.7 30.7,43.7 30.7,37.2 		"/>
		<path class="st0" d="M17.7,36.3c4.7-0.5,9,0,9.6,3.9c0,0.2,0,0,0,0c0-7.7,0-15.4,0-23.1c0-3.9-0.7-6.5-5.2-6.7
			c-5.3-0.3-10.6,1.5-15.7,2.5v25.9C10.1,37.7,13.9,36.9,17.7,36.3z"/>
		<path class="st0" d="M37,36.6c-3.2-0.4-9.8-1.4-9.8,3.7V14.4c0-4.8,6.7-4.3,9.9-3.8c1,0.2,10.3,1.9,10.3,2.3v25.9
			C43.7,37.9,40.6,37,37,36.6z"/>
		<rect y="0" class="st1" width="54" height="54"/>
	</g>
</g>
</svg>
