<svg xmlns="http://www.w3.org/2000/svg" viewBox="0 0 54 54"><defs><style>.cls-1{fill:#fff;stroke:#3e3939;stroke-linecap:round;stroke-linejoin:round;stroke-width:2.5px;}.cls-2{fill:none;}</style></defs><g id="Layer_2" data-name="Layer 2"><g id="image"><rect class="cls-1" x="3" y="14.08" width="48" height="27.57"/><polyline class="cls-1" points="37.03 36.81 37.03 43.74 37.03 43.74 34.07 42.26 30.73 43.74 30.73 43.74 30.73 37.2"/><path class="cls-1" d="M17.68,36.31c4.67-.53,9,0,9.58,3.87,0,.15,0,0,0,0,0-7.7,0-15.4,0-23.1,0-3.92-.71-6.47-5.18-6.75C16.83,10,11.48,11.82,6.4,12.85V38.72A103.46,103.46,0,0,1,17.68,36.31Z"/><path class="cls-1" d="M37,36.58c-3.15-.37-9.82-1.41-9.82,3.65V14.38c0-4.79,6.73-4.34,9.86-3.78,1,.18,10.25,1.92,10.25,2.25V38.72C43.71,37.92,40.56,37,37,36.58Z"/><rect class="cls-2" width="54" height="54"/></g></g></svg>