<svg xmlns="http://www.w3.org/2000/svg" viewBox="0 0 54 54"><defs><style>.cls-1,.cls-2{fill:none;}.cls-1{stroke:#3e3939;stroke-linecap:round;stroke-linejoin:round;stroke-width:2.5px;}</style></defs><g id="Layer_2" data-name="Layer 2"><g id="image"><path class="cls-1" d="M30.4,44.48H43.9s-4.66-5.54-5.08-16.42l-.4-4.87c0-7.18-4.86-13-12-13s-12,5.83-12,13l-.25,4.87C13.64,38.94,9,44.48,9,44.48H30.4Z"/><path class="cls-1" d="M23.28,10.3V6.6a3.17,3.17,0,0,1,3.16-3.16h0A3.16,3.16,0,0,1,29.6,6.6V9.94"/><path class="cls-1" d="M32.34,44.66a5.9,5.9,0,1,1-11.8,0"/><path class="cls-1" d="M5.72,21.52a12,12,0,0,0-.38,17"/><path class="cls-1" d="M8.86,25.68a6.82,6.82,0,0,0-.31,8.41"/><path class="cls-1" d="M48.28,38.54a12,12,0,0,0,.38-17"/><path class="cls-1" d="M45.14,34.39A6.84,6.84,0,0,0,45.45,26"/><rect class="cls-2" width="54" height="54"/></g></g></svg>