<svg xmlns="http://www.w3.org/2000/svg" viewBox="0 0 326.51 100.74"><defs><style>.cls-1{fill:#da4445;}</style></defs><g id="Layer_2" data-name="Layer 2"><g id="레이어_1" data-name="레이어 1"><path class="cls-1" d="M153.66,35c-7.85,0-13.6,2.55-17.08,7.11a3.45,3.45,0,0,1-2.85,1.33l-7.51-.23a1.56,1.56,0,0,1-1.41-1.66V16.11a1.74,1.74,0,0,0-1.7-1.67H110.88a1.53,1.53,0,0,0-1.45,1.67V91.38A1.58,1.58,0,0,0,110.75,93L123,94.53a1.64,1.64,0,0,0,1.78-1.65V64.32a1.54,1.54,0,0,1,1.58-1.66l5.64.19a2.59,2.59,0,0,1,2.29,1.64c2.86,7.07,9.43,11.16,19.36,11.16,13.67,0,21-7.74,21-20.33S167.33,35,153.66,35Zm-.29,28c-4.47,0-6.67-2.8-6.67-7.66s2.2-7.67,6.67-7.67,6.66,2.8,6.66,7.67S157.83,63,153.37,63Z"/><path class="cls-1" d="M2.65,56.17,57.89,60.4c.9.07,2.67-.69,2.67-1.66V49.39c0-.88-1.41-1.61-2.23-1.66l-39.44-2.2a1.79,1.79,0,0,1-1.66-1.66h0a1.54,1.54,0,0,1,1.52-1.67l37.71,1.93c.89,0,1.25-.72,1.25-1.67V33.92c0-.9-.34-1.64-1.18-1.66L2.64,30.64A1.89,1.89,0,0,0,.72,32.3V54.51C.72,55.38,1.84,56.11,2.65,56.17Z"/><path class="cls-1" d="M2.73,27.4,58,28.71c.87,0,2.59-.73,2.59-1.66V17.7c0-.92-1.46-1.66-2.31-1.67l-55.1-.14c-.86,0-2.43.74-2.43,1.66v8.19C.72,26.64,1.88,27.38,2.73,27.4Z"/><path class="cls-1" d="M107,90.42,99.55,46.29a1.58,1.58,0,0,0-1.46-1.36L92,44.63a1.65,1.65,0,0,1-1.45-2l1.53-7.52a1.59,1.59,0,0,1,1.57-1.31l10.72.33a1.55,1.55,0,0,0,1.54-1.66V18.68A1.57,1.57,0,0,0,104.39,17l-36.11-.14a1.51,1.51,0,0,0-1.44,1.66v12.8A1.54,1.54,0,0,0,68.26,33l6.57.21a1.62,1.62,0,0,1,1.44,2L70.53,62.67A2.41,2.41,0,0,1,68,64.57L1.67,58.9A1.6,1.6,0,0,0,0,60.56v9.56a1.62,1.62,0,0,0,1.4,1.65L21.64,74a1.65,1.65,0,0,1,1.43,1.65v7.46a1.6,1.6,0,0,0,1.33,1.65l12.27,1.54a1.62,1.62,0,0,0,1.78-1.65v-7a1.55,1.55,0,0,1,1.64-1.66l25.1,2.6a1.82,1.82,0,0,1,1.59,2.18l-1,5a1.65,1.65,0,0,0,1.33,2l12.55,1.54a1.58,1.58,0,0,0,1.69-1.3L85,69.77a1.55,1.55,0,0,1,3,0l3.39,19.67a1.61,1.61,0,0,0,1.35,1.35l12.46,1.52A1.61,1.61,0,0,0,107,90.42Z"/><path class="cls-1" d="M257.32,54.92l-55.7,3.74a1.22,1.22,0,0,0-1.1,1.24v9a1.23,1.23,0,0,0,1.3,1.23l38.86-3.27a1.2,1.2,0,0,1,1.26,1.23h0a1.21,1.21,0,0,1-1.06,1.24l-39.25,3.46A1.25,1.25,0,0,0,200.52,74V96.54a1.23,1.23,0,0,0,1.34,1.24l55.65-7a1.18,1.18,0,0,0,1-1.23V81.2A1.15,1.15,0,0,0,257.28,80l-38.85,4.19a1.24,1.24,0,0,1-1.35-1.23v-.09a1.31,1.31,0,0,1,1.15-1.23l39.23-4.08a1.2,1.2,0,0,0,1-1.24V56.16A1.15,1.15,0,0,0,257.32,54.92Z"/><path class="cls-1" d="M201.88,55.89,239,50.43a1.33,1.33,0,0,0,1.12-1.23V38a1.27,1.27,0,0,0-1.39-1.23l-21.49,2.7a1.26,1.26,0,0,1-1.37-1.23V32.62a1.23,1.23,0,0,1,1.15-1.24l21.86-.59a1.29,1.29,0,0,0,1.24-1.24V18.3a1.29,1.29,0,0,0-1.26-1.24l-37.12.2a1.28,1.28,0,0,0-1.25,1.24V54.67A1.22,1.22,0,0,0,201.88,55.89Z"/><path class="cls-1" d="M284.43,56.88c13-1,20.34-9.76,20.34-22.32s-7.34-20.83-20.34-20.83c-8.56,0-14.66,3.84-17.83,10.31a2,2,0,0,1-1.75,1.15l-5.12.21a1.25,1.25,0,0,1-1.24-1.24V15.78a1.16,1.16,0,0,0-1.1-1.24l-13.07,0a1.24,1.24,0,0,0-1.21,1.24V52.08a1.26,1.26,0,0,0,1.31,1.23l13-.82a1.19,1.19,0,0,0,1.07-1.24V42.73a1.26,1.26,0,0,1,1.17-1.24l3-.15a2.06,2.06,0,0,1,2.1,1.61C267,52.27,273.83,57.66,284.43,56.88Zm0-29.28c3.74-.09,6.34,2.6,6.34,7.47s-2.6,7.75-6.34,7.94-6.33-2.49-6.33-7.47S280.7,27.69,284.43,27.6Z"/><path class="cls-1" d="M325.48,14.45l-12.81,0c-.64,0-.94.55-.94,1.24V67.9A1.87,1.87,0,0,1,310,69.75l-27.13,2.71a1.26,1.26,0,0,1-1.35-1.23V62.31a1.25,1.25,0,0,0-1.31-1.24l-13,1a1.2,1.2,0,0,0-1.06,1.23V88.2a1.15,1.15,0,0,0,1.25,1.23l58.21-7.3c.58-.07.87-.6.87-1.23V15.69A1.11,1.11,0,0,0,325.48,14.45Z"/><path class="cls-1" d="M173.79,81.79,133.58,78a1.59,1.59,0,0,0-1.67,1.66V94.15a1.67,1.67,0,0,0,1.42,1.66l40.13,4.92a1.52,1.52,0,0,0,1.63-1.65V83.45A1.54,1.54,0,0,0,173.79,81.79Z"/><path class="cls-1" d="M198.82,12,187.28.41a1.34,1.34,0,0,0-1.9,0L173.84,12a1.42,1.42,0,0,0,.94,2.4h2.65a1.21,1.21,0,0,1,1.21,1.21V99.07a1.6,1.6,0,0,0,1.74,1.65l12.25-1.54A1.64,1.64,0,0,0,194,97.53V15.65a1.21,1.21,0,0,1,1.21-1.21h2.65A1.43,1.43,0,0,0,198.82,12Z"/><path class="cls-1" d="M133.75,17.79c-.08,1.15-.13,2.35-.16,3.54l2.85-.07-.28,2.44-2.62.25c0,1.32,0,2.65,0,3.95l3.4.27-.68,2.53h-5.47c-.31-2.1-.53-4.29-.64-6.44l-1.36.12-.5-2.95,1.74,0c0-1.23,0-2.44,0-3.61Z"/><path class="cls-1" d="M141.37,21.26a55.46,55.46,0,0,0-.15,7.06l3.55-.12a66.6,66.6,0,0,0,.31-6.94h2.8a43.7,43.7,0,0,1,.23,9.31l-6.27.61L138,29.74a29.58,29.58,0,0,1,.57-8.48Z"/><path class="cls-1" d="M159.33,17.45a68.48,68.48,0,0,1-.52,13.27,58.09,58.09,0,0,1-8.86,0,33.61,33.61,0,0,1-.56-9.29,52.47,52.47,0,0,1,6.76.13L156,17.45Zm-6.78,10.89,3.51-.15c.09-1.48.12-2.64.12-4L152.45,24Z"/><path class="cls-1" d="M160.88,21.41a58.62,58.62,0,0,1,8.56-.16,24.51,24.51,0,0,1-.11,9.47l-6.53.48L160,29l.28-3.81,6.51-.5,0-.93-6.14-.18Zm2,7.12,3.71-.13.07-1.47-3.83.59Z"/><path class="cls-1" d="M174.55,17.45a94.28,94.28,0,0,1-.47,13.25h-3a115.17,115.17,0,0,0-.21-13.25Z"/></g></g></svg>