<?xml version="1.0" encoding="utf-8"?>
<!-- Generator: Adobe Illustrator 24.3.0, SVG Export Plug-In . SVG Version: 6.00 Build 0)  -->
<svg version="1.1" id="Layer_1" xmlns="http://www.w3.org/2000/svg" xmlns:xlink="http://www.w3.org/1999/xlink" x="0px" y="0px"
	 viewBox="0 0 135.9 166.9" style="enable-background:new 0 0 135.9 166.9;" xml:space="preserve">
<style type="text/css">
	.st0{fill:#3E3939;}
</style>
<g id="Layer_2_1_">
	<g id="_Layer_">
		<path class="st0" d="M113.5,88.7c-0.2-21.1,17.3-31.3,18-31.7c-9.8-14.3-25.1-16.3-30.5-16.6C88,39,75.7,48,69.1,48
			s-16.8-7.4-27.6-7.2C27.3,41,14.3,49,7,61.7c-14.7,25.5-3.8,63.4,10.6,84.1c7,10.1,15.4,21.5,26.3,21.1
			c10.6-0.4,14.6-6.8,27.4-6.8s16.4,6.8,27.6,6.7c11.4-0.2,18.6-10.4,25.5-20.5c5-7.3,8.9-15.3,11.6-23.8
			C135.7,122.4,113.7,114,113.5,88.7z"/>
		<path class="st0" d="M92.5,26.6c5.8-7,9.8-16.9,8.7-26.6c-8.4,0.3-18.6,5.6-24.6,12.6c-5.4,6.3-10.2,16.3-8.9,25.8
			C77.1,39.2,86.7,33.7,92.5,26.6z"/>
	</g>
</g>
</svg>
