<?xml version="1.0" encoding="utf-8"?>
<!-- Generator: Adobe Illustrator 24.3.0, SVG Export Plug-In . SVG Version: 6.00 Build 0)  -->
<svg version="1.1" id="Layer_1" xmlns="http://www.w3.org/2000/svg" xmlns:xlink="http://www.w3.org/1999/xlink" x="0px" y="0px"
	 viewBox="0 0 54 54" style="enable-background:new 0 0 54 54;" xml:space="preserve">
<style type="text/css">
	.st0{fill:none;stroke:#DA4446;stroke-width:2.5;stroke-linecap:round;stroke-linejoin:round;}
	.st1{fill:none;}
</style>
<g id="Layer_2_1_">
	<g id="image">
		<path class="st0" d="M27.1,5H31v16.5c0,7.6-4.4,13.8-12,13.8l0,0c-7.6,0-12-6.2-12-13.8V5h5"/>
		<path class="st0" d="M22.1,35v0.5c0,1.7-1.4,3.1-3.1,3.1l0,0c-1.7,0-3.1-1.4-3.1-3.1v-0.6"/>
		<rect x="25.2" y="2.4" class="st0" width="1.2" height="5.6"/>
		<rect x="11.3" y="2.4" class="st0" width="1.2" height="5.6"/>
		<line class="st0" x1="8" y1="26.3" x2="30.4" y2="26.3"/>
		<path class="st0" d="M42.3,20v20c0,6.4-5.2,11.6-11.6,11.6h0l0,0C24.2,51.6,19,46.4,19,40c0,0,0,0,0,0v-1.1"/>
		<path class="st0" d="M47.1,14.7c0,2.7-2.2,4.8-4.8,4.8s-4.8-2.2-4.8-4.8s2.2-4.8,4.8-4.8l0,0C44.9,9.9,47.1,12.1,47.1,14.7z"/>
		<rect y="0" class="st1" width="54" height="54"/>
	</g>
</g>
</svg>
