<svg xmlns="http://www.w3.org/2000/svg" viewBox="0 0 54 54"><defs><style>.cls-1,.cls-2{fill:none;}.cls-1{stroke:#3e3939;stroke-linecap:round;stroke-linejoin:round;stroke-width:2.5px;}</style></defs><g id="Layer_2" data-name="Layer 2"><g id="image"><path class="cls-1" d="M27.11,5H31V21.48c0,7.61-4.42,13.79-12,13.79h0c-7.62,0-12-6.18-12-13.79V5H12"/><path class="cls-1" d="M22.09,35v.48a3.15,3.15,0,0,1-3.15,3.14h0a3.15,3.15,0,0,1-3.14-3.14V34.9"/><rect class="cls-1" x="25.17" y="2.37" width="1.21" height="5.56"/><rect class="cls-1" x="11.26" y="2.37" width="1.21" height="5.56"/><line class="cls-1" x1="8.01" y1="26.3" x2="30.36" y2="26.3"/><path class="cls-1" d="M42.27,20V40A11.63,11.63,0,0,1,30.64,51.63h0A11.62,11.62,0,0,1,19,40V38.92"/><path class="cls-1" d="M47.09,14.73a4.84,4.84,0,1,1-4.84-4.84A4.84,4.84,0,0,1,47.09,14.73Z"/><rect class="cls-2" width="54" height="54"/></g></g></svg>