<svg xmlns="http://www.w3.org/2000/svg" viewBox="0 0 54 54"><defs><style>.cls-1,.cls-3{fill:none;}.cls-1{stroke:#3e3939;stroke-linecap:round;stroke-linejoin:round;stroke-width:2.5px;}.cls-2{fill:#3e3939;}</style></defs><g id="Layer_2" data-name="Layer 2"><g id="image"><path class="cls-1" d="M44.39,50H11.46a1.85,1.85,0,0,1-1.85-1.85V44.52a1.86,1.86,0,0,1,1.85-1.86H44.39l0-36.81A1.85,1.85,0,0,0,42.48,4h-31A1.85,1.85,0,0,0,9.61,5.85V44.57"/><path class="cls-1" d="M43.83,42.69a1.81,1.81,0,0,0-1.8,1.8v3.67a1.81,1.81,0,0,0,1.8,1.8"/><line class="cls-1" x1="40.93" y1="46.49" x2="11.05" y2="46.49"/><path class="cls-2" d="M32,14.26a2.64,2.64,0,1,1-2.64-2.64A2.64,2.64,0,0,1,32,14.26Z"/><path class="cls-2" d="M23.57,19.78h6.88L26.93,33s-.56,1.75,1,.32c1-1,3.12-3.12,3.12-3.12s-.08.64-1.76,3a5.26,5.26,0,0,1-2.88,2.39c-3.36.8-4.08-.39-3-4.39s3-9.84,3-9.84h-2.8Z"/><rect class="cls-3" width="54" height="54"/></g></g></svg>