<svg xmlns="http://www.w3.org/2000/svg" xmlns:xlink="http://www.w3.org/1999/xlink" viewBox="0 0 49.76 57.46"><defs><style>.cls-1{fill:none;}.cls-2{clip-path:url(#clip-path);}.cls-3{fill:url(#linear-gradient);}.cls-4{fill:url(#linear-gradient-2);}.cls-5{fill:url(#linear-gradient-3);}.cls-6{fill:url(#linear-gradient-4);}</style><clipPath id="clip-path" transform="translate(0 1.1)"><path class="cls-1" d="M36.49,20l-11.61-6.7L2.48.34C1.24-.38,0,.05,0,1.56V54.24c0,1.13.89,1.61,2,1L24.88,42l11.61-6.71,11.16-6.44c1.31-.75,1.18-1.79.08-2.39S36.49,20,36.49,20Z"/></clipPath><linearGradient id="linear-gradient" x1="14.38" y1="0.21" x2="14.38" y2="57.25" gradientUnits="userSpaceOnUse"><stop offset="0" stop-color="#207cb0"/><stop offset="0.38" stop-color="#3cb2bf"/><stop offset="0.8" stop-color="#58e9ce"/><stop offset="1" stop-color="#63ffd4"/></linearGradient><linearGradient id="linear-gradient-2" y1="14.36" x2="36.49" y2="14.36" gradientUnits="userSpaceOnUse"><stop offset="0" stop-color="#4bc3ae"/><stop offset="1" stop-color="#dee999"/></linearGradient><linearGradient id="linear-gradient-3" x1="18.25" y1="28.73" x2="18.25" y2="57.46" gradientUnits="userSpaceOnUse"><stop offset="0" stop-color="#ec403d"/><stop offset="0.38" stop-color="#c93b75"/><stop offset="0.8" stop-color="#a636ac"/><stop offset="1" stop-color="#9934c2"/></linearGradient><linearGradient id="linear-gradient-4" x1="39.26" y1="21.07" x2="39.26" y2="36.39" gradientUnits="userSpaceOnUse"><stop offset="0" stop-color="#f87"/><stop offset="0.61" stop-color="#ffb175"/><stop offset="1" stop-color="#ffc774"/></linearGradient></defs><g id="Layer_2" data-name="Layer 2"><g id="Isolation_Mode" data-name="Isolation Mode"><g id="PLAY"><g class="cls-2"><polygon class="cls-3" points="0 0.21 0 28.73 0 57.25 28.77 28.73 0 0.21"/><polygon class="cls-4" points="36.49 21.07 24.88 14.37 0 0 0 0.21 28.77 28.73 36.49 21.07"/><polygon class="cls-5" points="0 57.25 0 57.46 24.88 43.09 36.49 36.39 28.77 28.73 0 57.25"/><polygon class="cls-6" points="36.49 21.07 28.77 28.73 36.49 36.39 49.76 28.73 36.49 21.07"/></g></g></g></g></svg>