<?xml version="1.0" encoding="utf-8"?>
<!-- Generator: Adobe Illustrator 24.3.0, SVG Export Plug-In . SVG Version: 6.00 Build 0)  -->
<svg version="1.1" id="Layer_1" xmlns="http://www.w3.org/2000/svg" xmlns:xlink="http://www.w3.org/1999/xlink" x="0px" y="0px"
	 viewBox="0 0 54 54" style="enable-background:new 0 0 54 54;" xml:space="preserve">
<style type="text/css">
	.st0{fill:none;stroke:#DA4446;stroke-width:2.5;stroke-linecap:round;stroke-linejoin:round;}
	.st1{fill:none;}
</style>
<g id="Layer_2_1_">
	<g id="image">
		<path class="st0" d="M30.4,44.5h13.5c0,0-4.7-5.5-5.1-16.4l-0.4-4.9c0-7.2-4.9-13-12-13s-12,5.8-12,13l-0.3,4.9
			C13.6,38.9,9,44.5,9,44.5H30.4z"/>
		<path class="st0" d="M23.3,10.3V6.6c0-1.7,1.4-3.2,3.2-3.2l0,0c1.7,0,3.2,1.4,3.2,3.2v3.3"/>
		<path class="st0" d="M32.3,44.7c0,3.3-2.6,5.9-5.9,5.9s-5.9-2.6-5.9-5.9c0,0,0,0,0,0"/>
		<path class="st0" d="M5.7,21.5c-4.8,4.6-5,12.2-0.4,17c0,0,0,0,0,0"/>
		<path class="st0" d="M8.9,25.7c-2,2.4-2.2,5.9-0.3,8.4"/>
		<path class="st0" d="M48.3,38.5c4.8-4.6,5-12.2,0.4-17c0,0,0,0,0,0"/>
		<path class="st0" d="M45.1,34.4c2-2.4,2.1-5.9,0.3-8.4"/>
		<rect y="0" class="st1" width="54" height="54"/>
	</g>
</g>
</svg>
