<svg xmlns="http://www.w3.org/2000/svg" viewBox="0 0 130.32 103.95"><defs><style>.cls-1{fill:#d94345;}</style></defs><g id="레이어_2" data-name="레이어 2"><g id="Layer_1" data-name="Layer 1"><path class="cls-1" d="M60,71V82.58a1.68,1.68,0,0,1-1.79,1.74L39.8,82.19A1.68,1.68,0,0,0,38,83.94v7.38a1.67,1.67,0,0,1-1.81,1.74L23.4,91.43A1.71,1.71,0,0,1,22,89.69V81.85a1.7,1.7,0,0,0-1.46-1.74L1.46,78A1.7,1.7,0,0,1,0,76.27V66.21a1.68,1.68,0,0,1,1.75-1.74l56.74,4.82A1.71,1.71,0,0,1,60,71Zm0-50.19v9.84a1.69,1.69,0,0,1-1.66,1.75L1.59,31.13A1.69,1.69,0,0,1,0,29.38V20.77A1.69,1.69,0,0,1,1.63,19l56.74.08A1.69,1.69,0,0,1,60,20.85Zm0,33.43v9.83a1.68,1.68,0,0,1-1.75,1.74L1.51,61.4A1.7,1.7,0,0,1,0,59.66V36.29a1.69,1.69,0,0,1,1.67-1.75l56.74,1.68A1.69,1.69,0,0,1,60,38v9a1.68,1.68,0,0,1-1.7,1.74l-40.55-2A1.69,1.69,0,0,0,16,48.46h0a1.71,1.71,0,0,0,1.54,1.75l40.87,2.32A1.7,1.7,0,0,1,60,54.28Z"/><path class="cls-1" d="M65.37,59.87l38.43-2.64c.6-.09.74-.64.74-1.29V42.88c0-.78-.4-1.39-1.12-1.3L81,42.56a1.24,1.24,0,0,1-1.37-1.3V35.38a1.38,1.38,0,0,1,1.31-1.3l22.59-.62c.66,0,1-.6,1-1.3V20.32c0-.72-.32-1.31-1-1.3l-38.46.2c-.67,0-.94.59-.94,1.31V58.58C64.15,59.37,64.64,60,65.37,59.87Z"/><path class="cls-1" d="M123.13,58.85l-58,3.94c-.64,0-.93.61-.93,1.3v9.43c0,.76.45,1.36,1.15,1.3l40.56-3.44a1.23,1.23,0,0,1,1.27,1.3A1.29,1.29,0,0,1,106,74L65.12,77.62c-.63,0-1,.62-1,1.3v23.72c0,.78.48,1.39,1.2,1.3l58.07-7.33c.61-.08.89-.64.89-1.3V86.49a1.16,1.16,0,0,0-1.22-1.29l-40.5,4.4a1.18,1.18,0,0,1-1.25-1.3v-.08a1.24,1.24,0,0,1,1.06-1.3l40.94-4.3a1.18,1.18,0,0,0,1-1.3V60.15A1.17,1.17,0,0,0,123.13,58.85Z"/><path class="cls-1" d="M129,27.73l-3.28.06a1.41,1.41,0,0,1-1.39-1.31V16.59c0-.7.77-1.95,1.47-1.95h2.76a1.28,1.28,0,0,0,1-2.21l-12-12a1.38,1.38,0,0,0-2,0l-12,12a1.29,1.29,0,0,0,1,2.23h2.76c.69,0,1.61,1.25,1.61,1.95V41.26h0V55.85c0,.75.41,1.35,1.1,1.31l13.43-.87c.64,0,.94-.61.94-1.3V46a1.35,1.35,0,0,1,1.27-1.3l3.42-.15a1.41,1.41,0,0,0,1.32-1.31V29A1.34,1.34,0,0,0,129,27.73Z"/></g></g></svg>