<svg xmlns="http://www.w3.org/2000/svg" viewBox="0 0 230 70"><defs><style>.cls-1{fill:#fff;}.cls-2{fill:#111;}</style></defs><g id="레이어_2" data-name="레이어 2"><g id="레이어_1-2" data-name="레이어 1"><rect class="cls-1" width="230" height="70" rx="35"/><path class="cls-2" d="M63.74,33.84a7.61,7.61,0,0,1,3.64-6.4,7.83,7.83,0,0,0-6.16-3.33c-2.59-.27-5.1,1.55-6.42,1.55s-3.38-1.52-5.57-1.48a8.22,8.22,0,0,0-6.9,4.21c-3,5.17-.76,12.76,2.1,16.93,1.43,2,3.1,4.33,5.29,4.25s2.94-1.36,5.52-1.36,3.31,1.36,5.54,1.31,3.74-2.06,5.12-4.12a16.85,16.85,0,0,0,2.35-4.77A7.39,7.39,0,0,1,63.74,33.84Z"/><path class="cls-2" d="M59.53,21.36A7.5,7.5,0,0,0,61.25,16a7.62,7.62,0,0,0-5,2.56,7.12,7.12,0,0,0-1.76,5.18A6.3,6.3,0,0,0,59.53,21.36Z"/><path class="cls-2" d="M89.42,44.6h-7l-1.68,5h-3l6.65-18.42h3.09l6.65,18.42h-3Zm-6.3-2.3h5.57l-2.75-8.08h-.07Z"/><path class="cls-2" d="M108.49,42.86c0,4.18-2.23,6.86-5.61,6.86a4.55,4.55,0,0,1-4.22-2.35h-.07V54H95.84V36.15h2.67v2.23h0A4.75,4.75,0,0,1,102.83,36C106.24,36,108.49,38.7,108.49,42.86Zm-2.83,0c0-2.72-1.41-4.5-3.55-4.5s-3.53,1.82-3.53,4.5,1.42,4.52,3.53,4.52S105.66,45.61,105.66,42.86Z"/><path class="cls-2" d="M123.27,42.86c0,4.18-2.23,6.86-5.6,6.86a4.56,4.56,0,0,1-4.23-2.35h-.06V54h-2.76V36.15h2.67v2.23h0A4.77,4.77,0,0,1,117.62,36C121,36,123.27,38.7,123.27,42.86Zm-2.83,0c0-2.72-1.41-4.5-3.55-4.5s-3.52,1.82-3.52,4.5,1.41,4.52,3.52,4.52S120.44,45.61,120.44,42.86Z"/><path class="cls-2" d="M133,44.45c.21,1.82,2,3,4.41,3s4-1.2,4-2.84c0-1.43-1-2.29-3.39-2.88l-2.39-.57c-3.38-.82-5-2.4-5-5,0-3.18,2.77-5.36,6.71-5.36S144,33,144.06,36.21h-2.78c-.17-1.84-1.69-3-3.91-3s-3.74,1.13-3.74,2.76c0,1.3,1,2.07,3.34,2.66l2,.49c3.78.9,5.35,2.42,5.35,5.11,0,3.45-2.74,5.61-7.11,5.61-4.08,0-6.84-2.11-7-5.44Z"/><path class="cls-2" d="M150.3,33v3.18h2.56v2.18H150.3v7.4c0,1.16.52,1.69,1.64,1.69.28,0,.73,0,.91-.06v2.17a8.15,8.15,0,0,1-1.54.13c-2.71,0-3.78-1-3.78-3.63v-7.7h-1.95V36.15h1.95V33Z"/><path class="cls-2" d="M154.34,42.86c0-4.22,2.49-6.88,6.37-6.88s6.37,2.66,6.37,6.88-2.47,6.89-6.37,6.89S154.34,47.1,154.34,42.86Zm9.93,0c0-2.9-1.33-4.61-3.56-4.61s-3.57,1.73-3.57,4.61,1.33,4.61,3.57,4.61S164.27,45.77,164.27,42.86Z"/><path class="cls-2" d="M169.35,36.15H172v2.28H172A3.21,3.21,0,0,1,175.28,36a4.34,4.34,0,0,1,.94.1v2.58a3.83,3.83,0,0,0-1.24-.17,2.78,2.78,0,0,0-2.87,3.09v8h-2.76Z"/><path class="cls-2" d="M188.93,45.63c-.37,2.44-2.74,4.12-5.78,4.12-3.91,0-6.33-2.62-6.33-6.82s2.43-7,6.21-7,6.05,2.55,6.05,6.63v.94H179.6v.17a3.49,3.49,0,0,0,3.61,3.8,3,3,0,0,0,3.1-1.89Zm-9.32-4h6.72a3.23,3.23,0,0,0-3.3-3.4A3.4,3.4,0,0,0,179.61,41.62Z"/><path class="cls-2" d="M82.78,17.29c2.62,0,4.16,1.61,4.16,4.4s-1.53,4.45-4.16,4.45h-3.2V17.29ZM81,24.89h1.67c1.85,0,2.92-1.15,2.92-3.18s-1.08-3.17-2.92-3.17H81Z"/><path class="cls-2" d="M88.49,22.8c0-2.16,1.21-3.47,3.16-3.47s3.14,1.31,3.14,3.47-1.19,3.47-3.14,3.47S88.49,25,88.49,22.8Zm5,0c0-1.45-.65-2.3-1.79-2.3s-1.79.85-1.79,2.3.64,2.3,1.79,2.3S93.44,24.25,93.44,22.8Z"/><path class="cls-2" d="M103.17,26.14H101.8l-1.38-4.92h-.1l-1.38,4.92H97.59l-1.84-6.68h1.33l1.2,5.1h.1l1.37-5.1H101l1.37,5.1h.1l1.2-5.1H105Z"/><path class="cls-2" d="M106.55,19.46h1.27v1.06h.1a2,2,0,0,1,2-1.19,2.18,2.18,0,0,1,2.32,2.49v4.32h-1.32v-4c0-1.08-.47-1.61-1.44-1.61a1.53,1.53,0,0,0-1.6,1.69v3.91h-1.32Z"/><path class="cls-2" d="M114.33,16.85h1.31v9.29h-1.31Z"/><path class="cls-2" d="M117.48,22.8c0-2.16,1.2-3.47,3.15-3.47s3.15,1.31,3.15,3.47-1.2,3.47-3.15,3.47S117.48,25,117.48,22.8Zm4.94,0c0-1.45-.65-2.3-1.79-2.3s-1.79.85-1.79,2.3.64,2.3,1.79,2.3S122.42,24.25,122.42,22.8Z"/><path class="cls-2" d="M125.17,24.25c0-1.2.89-1.89,2.48-2l1.81-.11v-.57c0-.71-.47-1.11-1.37-1.11-.73,0-1.24.27-1.39.75h-1.28c.14-1.15,1.22-1.89,2.73-1.89,1.68,0,2.62.84,2.62,2.25v4.56H129.5V25.2h-.1a2.25,2.25,0,0,1-2,1.05A2,2,0,0,1,125.17,24.25Zm4.29-.57v-.56l-1.63.11c-.92.06-1.34.37-1.34,1s.52.95,1.24.95A1.58,1.58,0,0,0,129.46,23.68Z"/><path class="cls-2" d="M132.51,22.8c0-2.11,1.08-3.45,2.77-3.45a2.23,2.23,0,0,1,2.05,1.17h.1V16.85h1.31v9.29h-1.26V25.09h-.1a2.32,2.32,0,0,1-2.1,1.16C133.58,26.25,132.51,24.91,132.51,22.8Zm1.36,0c0,1.42.67,2.27,1.78,2.27s1.8-.87,1.8-2.27-.69-2.27-1.8-2.27S133.87,21.39,133.87,22.8Z"/><path class="cls-2" d="M144.2,22.8c0-2.16,1.2-3.47,3.15-3.47s3.15,1.31,3.15,3.47-1.2,3.47-3.15,3.47S144.2,25,144.2,22.8Zm4.94,0c0-1.45-.65-2.3-1.79-2.3s-1.79.85-1.79,2.3.65,2.3,1.79,2.3S149.14,24.25,149.14,22.8Z"/><path class="cls-2" d="M152.27,19.46h1.27v1.06h.1a2,2,0,0,1,2-1.19,2.18,2.18,0,0,1,2.31,2.49v4.32h-1.32v-4c0-1.08-.46-1.61-1.44-1.61a1.53,1.53,0,0,0-1.59,1.69v3.91h-1.32Z"/><path class="cls-2" d="M165.39,17.8v1.69h1.45V20.6h-1.45V24c0,.7.29,1,1,1a4.07,4.07,0,0,0,.5,0v1.1a4,4,0,0,1-.72.07c-1.47,0-2.05-.52-2.05-1.81V20.6H163V19.49h1.06V17.8Z"/><path class="cls-2" d="M168.64,16.85H170v3.68h.1a2.06,2.06,0,0,1,2-1.19,2.2,2.2,0,0,1,2.3,2.49v4.31h-1.32v-4c0-1.06-.5-1.6-1.43-1.6A1.56,1.56,0,0,0,170,22.24v3.9h-1.32Z"/><path class="cls-2" d="M182.07,24.34a2.71,2.71,0,0,1-2.89,1.93c-1.91,0-3.09-1.31-3.09-3.45s1.2-3.49,3.08-3.49,3,1.27,3,3.37v.46h-4.71v.07a1.76,1.76,0,0,0,1.78,1.92,1.62,1.62,0,0,0,1.59-.81Zm-4.63-2.16h3.37a1.62,1.62,0,0,0-1.64-1.73A1.7,1.7,0,0,0,177.44,22.18Z"/></g></g></svg>