<svg xmlns="http://www.w3.org/2000/svg" xmlns:xlink="http://www.w3.org/1999/xlink" viewBox="0 0 230 70"><defs><style>.cls-1,.cls-10{fill:#fff;}.cls-2,.cls-3{fill:#111;}.cls-2{stroke:#fff;stroke-miterlimit:10;stroke-width:0.2px;}.cls-4{fill:url(#linear-gradient);}.cls-5{fill:url(#linear-gradient-2);}.cls-6{fill:url(#linear-gradient-3);}.cls-7{fill:url(#linear-gradient-4);}.cls-10,.cls-8,.cls-9{isolation:isolate;}.cls-8{opacity:0.2;}.cls-9{opacity:0.12;}.cls-10{opacity:0.25;}</style><linearGradient id="linear-gradient" x1="47.97" y1="994.1" x2="23.57" y2="969.7" gradientTransform="matrix(1, 0, 0, -1, 0, 1012)" gradientUnits="userSpaceOnUse"><stop offset="0" stop-color="#00a0ff"/><stop offset="0.01" stop-color="#00a1ff"/><stop offset="0.26" stop-color="#00beff"/><stop offset="0.51" stop-color="#00d2ff"/><stop offset="0.76" stop-color="#00dfff"/><stop offset="1" stop-color="#00e3ff"/></linearGradient><linearGradient id="linear-gradient-2" x1="65.47" y1="977.68" x2="30.29" y2="977.68" gradientTransform="matrix(1, 0, 0, -1, 0, 1012)" gradientUnits="userSpaceOnUse"><stop offset="0" stop-color="#ffe000"/><stop offset="0.41" stop-color="#ffbd00"/><stop offset="0.78" stop-color="orange"/><stop offset="1" stop-color="#ff9c00"/></linearGradient><linearGradient id="linear-gradient-3" x1="52.37" y1="974.35" x2="19.28" y2="941.25" gradientTransform="matrix(1, 0, 0, -1, 0, 1012)" gradientUnits="userSpaceOnUse"><stop offset="0" stop-color="#ff3a44"/><stop offset="1" stop-color="#c31162"/></linearGradient><linearGradient id="linear-gradient-4" x1="26.88" y1="1006.51" x2="41.66" y2="991.73" gradientTransform="matrix(1, 0, 0, -1, 0, 1012)" gradientUnits="userSpaceOnUse"><stop offset="0" stop-color="#32a071"/><stop offset="0.07" stop-color="#2da771"/><stop offset="0.48" stop-color="#15cf74"/><stop offset="0.8" stop-color="#06e775"/><stop offset="1" stop-color="#00f076"/></linearGradient></defs><g id="레이어_2" data-name="레이어 2"><g id="레이어_1-2" data-name="레이어 1"><rect class="cls-1" width="230" height="70" rx="35"/><path class="cls-2" d="M85.22,20.13A3.93,3.93,0,0,1,84.14,23a4.23,4.23,0,0,1-3.2,1.29,4.51,4.51,0,0,1-4.54-4.56,4.51,4.51,0,0,1,4.54-4.55,4.58,4.58,0,0,1,1.79.36,3.67,3.67,0,0,1,1.36,1l-.77.76a2.92,2.92,0,0,0-2.38-1,3.37,3.37,0,0,0-3.39,3.48,3.37,3.37,0,0,0,3.39,3.49,3.3,3.3,0,0,0,2.43-1,2.71,2.71,0,0,0,.73-1.76H80.94V19.47h4.22A3.85,3.85,0,0,1,85.22,20.13Z"/><path class="cls-2" d="M91.93,16.48H88v2.77h3.59V20.3H88v2.76h4v1.08h-5.1V15.41h5.1Z"/><path class="cls-2" d="M96.65,24.14H95.53V16.48H93.1V15.41h6v1.07H96.65Z"/><path class="cls-2" d="M103.43,24.14V15.41h1.12v8.73Z"/><path class="cls-2" d="M109.52,24.14H108.4V16.48H106V15.41h6v1.07h-2.44Z"/><path class="cls-2" d="M123.31,23a4.54,4.54,0,0,1-6.4,0,4.45,4.45,0,0,1-1.28-3.24,4.44,4.44,0,0,1,1.28-3.23,4.51,4.51,0,0,1,6.39,0,4.44,4.44,0,0,1,1.29,3.22A4.45,4.45,0,0,1,123.31,23Zm-5.57-.73a3.36,3.36,0,0,0,4.74,0,3.41,3.41,0,0,0,1-2.51,3.39,3.39,0,0,0-1-2.5,3.36,3.36,0,0,0-4.74,0,3.39,3.39,0,0,0-1,2.5A3.41,3.41,0,0,0,117.74,22.28Z"/><path class="cls-2" d="M126.17,24.14V15.41h1.36l4.24,6.79h0l0-1.68V15.41h1.12v8.73h-1.17L127.29,17h-.05l.05,1.68v5.44Z"/><path class="cls-3" d="M115.35,36.86a6.19,6.19,0,1,0,6.21,6.19A6.1,6.1,0,0,0,115.35,36.86Zm0,9.93a3.75,3.75,0,1,1,3.49-3.74A3.57,3.57,0,0,1,115.35,46.79Zm-13.54-9.93a6.19,6.19,0,1,0,6.2,6.19A6.1,6.1,0,0,0,101.81,36.86Zm0,9.93a3.75,3.75,0,1,1,3.49-3.74A3.57,3.57,0,0,1,101.81,46.79Zm-16.11-8v2.62H92a5.5,5.5,0,0,1-1.43,3.31,6.47,6.47,0,0,1-4.85,1.92,7,7,0,0,1,0-14,6.7,6.7,0,0,1,4.73,1.87l1.85-1.85A9.14,9.14,0,0,0,85.7,30a9.61,9.61,0,1,0,0,19.21,8.81,8.81,0,0,0,6.7-2.69,8.69,8.69,0,0,0,2.27-6.14,8.88,8.88,0,0,0-.14-1.64Zm65.88,2a5.74,5.74,0,0,0-5.29-3.94,5.88,5.88,0,0,0-5.84,6.19,6.16,6.16,0,0,0,11.29,3.44l-2.1-1.41a3.53,3.53,0,0,1-3,1.71,3.15,3.15,0,0,1-3-1.87l8.27-3.42Zm-8.43,2.06a3.39,3.39,0,0,1,3.23-3.61,2.41,2.41,0,0,1,2.3,1.31Zm-6.73,6h2.72V30.68h-2.72ZM132,38.24h-.09a4.31,4.31,0,0,0-3.26-1.38,6.19,6.19,0,0,0,0,12.37,4.22,4.22,0,0,0,3.26-1.4H132v.89c0,2.36-1.26,3.63-3.3,3.63a3.44,3.44,0,0,1-3.12-2.21l-2.36,1a5.89,5.89,0,0,0,5.48,3.65c3.19,0,5.88-1.87,5.88-6.44V37.24H132Zm-3.11,8.55a3.76,3.76,0,0,1,0-7.49,3.48,3.48,0,0,1,3.3,3.77A3.45,3.45,0,0,1,128.86,46.79Zm35.45-16.11h-6.5V48.86h2.71V42h3.79a5.65,5.65,0,1,0,0-11.29Zm.07,8.76h-3.86V33.21h3.86a3.12,3.12,0,1,1,0,6.23Zm16.77-2.61a5.08,5.08,0,0,0-4.84,2.78l2.41,1a2.56,2.56,0,0,1,2.47-1.34,2.62,2.62,0,0,1,2.86,2.34v.19a6,6,0,0,0-2.83-.7c-2.6,0-5.24,1.43-5.24,4.09,0,2.43,2.13,4,4.51,4A3.82,3.82,0,0,0,184,47.42h.1v1.41h2.62v-7C186.67,38.63,184.26,36.83,181.15,36.83Zm-.33,10c-.89,0-2.13-.44-2.13-1.54,0-1.41,1.55-1.94,2.88-1.94a4.87,4.87,0,0,1,2.48.6A3.29,3.29,0,0,1,180.82,46.79Zm15.39-9.56-3.11,7.88H193l-3.22-7.88h-2.93l4.85,11-2.76,6.13h2.83l7.46-17.14ZM171.77,48.86h2.71V30.68h-2.71Z"/><path class="cls-4" d="M31.45,16.19a2.9,2.9,0,0,0-.68,2V50.4a2.88,2.88,0,0,0,.68,2l.1.1,18-18V34.1l-18-18Z"/><path class="cls-5" d="M55.57,40.54l-6-6V34.1l6-6,.13.08,7.12,4c2,1.15,2,3,0,4.2l-7.12,4Z"/><path class="cls-6" d="M55.71,40.46l-6.14-6.14L31.45,52.44c.67.71,1.77.8,3,.09L55.71,40.46"/><path class="cls-7" d="M55.71,28.17,34.47,16.1c-1.25-.7-2.35-.61-3,.09L49.57,34.32Z"/><path class="cls-8" d="M55.58,40.32l-21.11,12a2.42,2.42,0,0,1-2.91,0h0l-.11.11h0l.1.1h0a2.42,2.42,0,0,0,2.91,0L55.71,40.46Z"/><path class="cls-9" d="M31.45,52.23a2.9,2.9,0,0,1-.68-2v.22a2.88,2.88,0,0,0,.68,2l.11-.11Z"/><path class="cls-9" d="M62.83,36.2l-7.25,4.12.13.14,7.12-4a2.56,2.56,0,0,0,1.52-2.1h0A2.7,2.7,0,0,1,62.83,36.2Z"/><path class="cls-10" d="M34.47,16.32,62.83,32.43a2.71,2.71,0,0,1,1.52,1.89h0a2.55,2.55,0,0,0-1.52-2.1L34.47,16.11c-2-1.16-3.7-.2-3.7,2.13v.21C30.77,16.12,32.44,15.16,34.47,16.32Z"/></g></g></svg>